<?xml version="1.0" standalone="no"?><!DOCTYPE svg PUBLIC "-//W3C//DTD SVG 1.1//EN" "http://www.w3.org/Graphics/SVG/1.1/DTD/svg11.dtd"><svg t="1503830034895" class="icon" style="" viewBox="0 0 1024 1024" version="1.1" xmlns="http://www.w3.org/2000/svg" p-id="4154" xmlns:xlink="http://www.w3.org/1999/xlink" width="200" height="200"><defs><style type="text/css"></style></defs><path d="M913.100726 522.05296c0.297782-3.66139 0-7.467065-1.02126-11.274788l-72.180949-318.437539c-1.02126-3.800559-2.632967-7.315616-4.828982-10.393721-7.761778-15.373129-19.472494-29.135574-35.138288-38.946011-16.395412-10.392698-34.847669-15.368012-52.999075-15.368012l0 0.146333-463.378629 0.146333c-1.611707-0.292666-3.217275-0.437975-4.974291-0.437975-1.75804 0-3.368724 0.146333-4.980431 0.437975L150.327262 127.925554c-1.75804-0.292666-3.51608-0.437975-5.272074-0.437975-18.445094 0-33.382295 14.930037-33.382295 33.377178l0.291642 400.718521c0 18.445094 14.936177 33.381271 33.381271 33.381271 1.320065 0 2.778276-0.146333 4.098341-0.296759l110.829178 0.296759 0 0.583285c101.900831 7.322779 182.717462 90.918709 185.648211 193.986109-0.297782 2.930749-0.444115 5.857405-0.444115 8.788154 0 53.584406 43.482327 97.066733 97.071849 97.066733 46.115294 0 84.61719-32.209586 94.572936-75.252915l0.443092 0c5.414313-24.598234 8.491395-50.075489 8.491395-76.279291 0-40.405245-6.878664-79.204923-19.472494-115.365494l186.378851-0.146333c1.757017 0 3.362584-0.150426 4.974291-0.444115 31.771611-1.312902 62.517869-17.570167 80.522941-46.701648C910.029784 563.043536 914.5661 542.256094 913.100726 522.05296M178.726056 194.97974l66.763566 0 0.291642 333.512886-66.76152-0.145309L178.726056 194.97974 178.726056 194.97974 178.726056 194.97974zM842.244958 546.647101c-6.446829 10.393721-17.7165 15.812127-29.136597 15.22782l0 0.147356-0.146333 0-235.571227 0.291642c-18.445094 0-33.380248 14.935154-33.380248 33.379225 0 5.273097 1.320065 10.249435 3.514033 14.789844l-0.291642 0.293689c13.32447 24.88476 22.98755 51.826366 28.54615 80.373539l0.444115 0c0 0 4.391007 18.012236 4.391007 52.560076 0 27.379581-4.980431 52.416813-4.980431 52.416813l-0.291642 0c0 0.438998 0.146333 1.022283 0.146333 1.461281 0 17.276479-13.908778 31.185256-31.18628 31.185256-17.271362 0-31.18014-13.908778-31.18014-31.185256 0-0.730641 0-1.461281 0.146333-2.196015l-0.444115 0c0 0 0.589424-26.059516-4.682649-53.145407-2.196015-11.416004-5.272074-22.107507-8.198729-30.597879 0 0-0.146333 0-0.146333 0.147356-28.108175-85.942371-98.677417-152.553465-187.108468-174.957731l-0.291642-341.857948 434.970626-0.146333c1.465374 0 2.930749-0.146333 4.396123-0.292666 4.389984 0.584308 8.635681 2.049682 12.589736 4.53734 5.564739 3.515057 9.66308 8.635681 12.004405 14.346753l0.146333 0 69.39551 306.579467-0.292666 0.146333C848.247672 528.492626 847.365582 538.303063 842.244958 546.647101" p-id="4155" fill="#ffffff"></path></svg>