<?xml version="1.0" standalone="no"?><!DOCTYPE svg PUBLIC "-//W3C//DTD SVG 1.1//EN" "http://www.w3.org/Graphics/SVG/1.1/DTD/svg11.dtd"><svg t="1503828406183" class="icon" style="" viewBox="0 0 1024 1024" version="1.1" xmlns="http://www.w3.org/2000/svg" p-id="1969" xmlns:xlink="http://www.w3.org/1999/xlink" width="200" height="200"><defs><style type="text/css"></style></defs><path d="M958.7 512c-8.7-66.9-23.8-112.1-111.8-112.1H623.3s26.9-55.9 27.9-140.2c-1.1-2.7-4.7-168.2-111.8-168.2-77.4 0-86.3 88.8-98.1 129.6-29 112.4-98 201.5-209.3 206.8H120.3c-38.9 3.6-55 24.2-55.9 52.2-0.9 28 0 396.3 0 396.3 0 39.2 24.4 56.1 55.9 56.1h111.8c13.4 0 18.7-0.1 22.5-0.1 1.9 0 3.4 0 5.4 0.1h531.4c28.1 0 55.5-3.3 83.5-56.1-1.5 0 97.5-220.2 83.8-364.4z m-830.5-20.1H212v376.6h-83.6c-0.3-134.6-0.6-328.6-0.2-376.6z m691.1 350.8c-1.2 3.1-2.2 5.5-3 7.5-7.8 13.7-12.7 17.2-13.3 17.6-0.9 0.3-3.5 0.7-11.6 0.7H268V488.3c23.6-4 46.2-11.2 67.4-21.5 29-14 55.5-33.6 78.8-58.3 21.1-22.5 39.6-49.2 55-79.5 14-27.6 25.4-58.2 34-91 1.9-6.8 3.6-13.8 5.4-21.2 4.3-17.7 9.6-39.7 17.8-53 2.1-3.3 4.2-5.9 5.8-6.9 1.7-1.1 4.9-1.3 7.3-1.3 7.8 0 11.9 2.3 15.7 5.7 4.2 3.8 10.5 11.6 16.8 27.2 7.7 19.2 12.8 43.7 15.1 72.7 0 0.4 0.1 0.9 0.1 1.3-1.4 63.3-20.1 106.5-21.7 109.9l-45.8 91.5h327.2c16.7 0 25.9 2.1 30.6 3.9 3.7 1.4 4.6 2.5 5.1 3.2 7 8.7 10.9 37.1 12.4 48.1 4 44.7-5.2 108.1-26.8 183.3-18.3 64.2-40.6 119.5-48.9 140.3z" fill="#d81e06" p-id="1970"></path></svg>